<?xml version="1.0" encoding="UTF-8"?> <svg xmlns="http://www.w3.org/2000/svg" id="Layer_1" data-name="Layer 1" width="139.27" height="30" viewBox="0 0 139.27 30"><title>Untitled-1</title><g id="Livello_2" data-name="Livello 2"><g id="Livello_1-2" data-name="Livello 1-2"><path d="M55.76,3.22l-.23,5.45a6.81,6.81,0,0,0-2.38-3.13,6.5,6.5,0,0,0-3.73-1,8.39,8.39,0,0,0-6.69,2.81c-1.62,1.87-2.43,4.46-2.43,7.76A11.83,11.83,0,0,0,43,23.19a9,9,0,0,0,7.13,3A9.57,9.57,0,0,0,54,25.4a9.24,9.24,0,0,0,3.17-2.33,7.42,7.42,0,0,1-3.13,4.43,10.16,10.16,0,0,1-5.85,1.65,11,11,0,0,1-8.51-3.63,13.42,13.42,0,0,1-3.35-9.32q0-6.3,3.59-9.88c2.38-2.38,5.69-3.58,9.91-3.58a27.43,27.43,0,0,1,3,.24A27.91,27.91,0,0,0,55.76,3.22Z" transform="translate(-0.37 0)" style="fill:#002e5a"></path><path d="M73.8,24.35v.47a3.81,3.81,0,0,1-1.94,3,7.45,7.45,0,0,1-4.43,1.37,7.11,7.11,0,0,1-5.7-2.51,10,10,0,0,1-2.13-6.75A10,10,0,0,1,61.86,13a7.7,7.7,0,0,1,6-2.55A6.62,6.62,0,0,1,72.34,12a4.73,4.73,0,0,1,1.72,3.77A1.25,1.25,0,0,1,73,17a31.89,31.89,0,0,1-6,.31h-2.3l-1.54-.06a7.77,7.77,0,0,0-.24,1.06,10.32,10.32,0,0,0-.07,1.19,8.12,8.12,0,0,0,1.58,5.27,5.22,5.22,0,0,0,4.25,1.93,6.45,6.45,0,0,0,2.74-.59A8.16,8.16,0,0,0,73.8,24.35Zm-10.41-8.3h.34l1,0c.59,0,1.16,0,1.7,0h.5a11,11,0,0,0,3.25-.28,1.08,1.08,0,0,0,.61-1.08,2.71,2.71,0,0,0-.94-2.06,3.28,3.28,0,0,0-2.31-.85A3.74,3.74,0,0,0,64.74,13,5,5,0,0,0,63.38,16.05Z" transform="translate(-0.37 0)" style="fill:#002e5a"></path><path d="M77.15,28.67a2.13,2.13,0,0,0,.66-1.34,24.75,24.75,0,0,0,.18-3.7v-5A53.47,53.47,0,0,0,77.8,13a2.48,2.48,0,0,0-.66-1.65l1.79-.3c.71-.12,1.11-.18,1.2-.18q.59,0,.64,1.65c0,.34,0,.6,0,.78a6.92,6.92,0,0,1,1.94-2.13A4,4,0,0,1,85,10.49a2.62,2.62,0,0,1,1.55.43A1.28,1.28,0,0,1,87.16,12a1,1,0,0,1-.4.87,1.85,1.85,0,0,1-1.16.31,7.71,7.71,0,0,1-1-.06,8.26,8.26,0,0,0-1.11-.06,2.09,2.09,0,0,0-2.13,1.08c-.34.73-.51,2.43-.51,5.11v5A18.16,18.16,0,0,0,81,27.32a2.13,2.13,0,0,0,.65,1.34Z" transform="translate(-0.37 0)" style="fill:#002e5a"></path><path d="M96.29,28.87q-2.47-8.36-4.23-13c-1.17-3.11-2-4.72-2.51-4.82l2.89-.33h.37q.85,0,3,7.4,1.4,4.79,2.37,7.89Q100,21,101.09,17.36a22.78,22.78,0,0,0,1.07-5,3.21,3.21,0,0,0-.09-.76,2.51,2.51,0,0,0-.26-.69h4.11q-.89.85-2.91,5.77T98.63,28.87Z" transform="translate(-0.37 0)" style="fill:#002e5a"></path><path d="M120.67,24.35v.47a3.81,3.81,0,0,1-1.94,3,7.44,7.44,0,0,1-4.42,1.37,7.11,7.11,0,0,1-5.7-2.51,10,10,0,0,1-2.13-6.75A10,10,0,0,1,108.73,13a7.7,7.7,0,0,1,6-2.55A6.62,6.62,0,0,1,119.22,12a4.71,4.71,0,0,1,1.72,3.77,1.25,1.25,0,0,1-1,1.24,32,32,0,0,1-6,.31h-2.3L110,17.23a6.28,6.28,0,0,0-.23,1.08,10.36,10.36,0,0,0-.06,1.19,8.1,8.1,0,0,0,1.57,5.27,5.23,5.23,0,0,0,4.25,1.93,6.47,6.47,0,0,0,2.71-.57A8,8,0,0,0,120.67,24.35Zm-10.41-8.3h.35l1,0c.59,0,1.17,0,1.7,0h.51a11,11,0,0,0,3.25-.28,1.08,1.08,0,0,0,.61-1.08,2.7,2.7,0,0,0-.94-2.06,3.3,3.3,0,0,0-2.32-.85A3.74,3.74,0,0,0,111.62,13,5,5,0,0,0,110.26,16.05Z" transform="translate(-0.37 0)" style="fill:#002e5a"></path><path d="M139.2.85c-.15,1.3-.28,3.62-.4,7s-.16,7.09-.16,11.24q0,5.93.21,7.55a3.18,3.18,0,0,0,.78,2.06l-3.72.24a8.06,8.06,0,0,1-.17-1.74V26.7a5.64,5.64,0,0,1-2.2,1.81,7.19,7.19,0,0,1-3.06.64,6.3,6.3,0,0,1-5.11-2.38,9.66,9.66,0,0,1-1.95-6.32,9.56,9.56,0,0,1,2.83-7.3A10.86,10.86,0,0,1,134,10.48c.43,0,.8,0,1.08,0l.85.06V6.38a23.45,23.45,0,0,0-.17-3.31,4.25,4.25,0,0,0-.55-1.65Zm-7,26.2A3.3,3.3,0,0,0,135,25.92c.55-.74.85-2.22.85-4.4,0-3.54,0-5.81-.06-6.81a7.23,7.23,0,0,0-.23-1.86,1.3,1.3,0,0,0-.78-.72,4,4,0,0,0-1.54-.24A6.08,6.08,0,0,0,128.37,14a8.74,8.74,0,0,0-1.8,5.8A8.15,8.15,0,0,0,128.15,25,5,5,0,0,0,132.21,27Z" transform="translate(-0.37 0)" style="fill:#002e5a"></path><path d="M15.36,0a15,15,0,0,0-15,15v0a28.48,28.48,0,0,1,2.94-3.4C8.05,6.86,17.24,2,23.18,7.9c2.13,2.13,2.93,6.25.63,8.55-2.46,2.46-6,3.88-8.94.85-2.37-2.37-.4-5.31-1.82-6.73-2.22-2.22-7,1.51-8.31,2.77-2.82,2.83-3.8,5.72-2.88,8.18h0A15,15,0,1,0,15.36,0Z" transform="translate(-0.37 0)" style="fill:#008996"></path></g></g></svg> 